<mxfile host="app.diagrams.net" modified="2020-09-05T17:22:09.505Z" agent="5.0 (Macintosh; Intel Mac OS X 10_14_6) AppleWebKit/537.36 (KHTML, like Gecko) Chrome/78.0.3904.108 Safari/537.36" etag="l6gLCIJDKneMokrW-qLZ" version="13.6.6" type="github">
  <diagram name="Page-1" id="efa7a0a1-bf9b-a30e-e6df-94a7791c09e9">
    <mxGraphModel dx="3777" dy="1524" grid="1" gridSize="10" guides="1" tooltips="1" connect="1" arrows="1" fold="1" page="1" pageScale="1" pageWidth="826" pageHeight="1169" background="#ffffff" math="0" shadow="0">
      <root>
        <mxCell id="0" />
        <mxCell id="1" parent="0" />
        <mxCell id="m28Sy5Jbz2A3yalMhefJ-157" style="edgeStyle=orthogonalEdgeStyle;rounded=0;orthogonalLoop=1;jettySize=auto;html=1;exitX=1;exitY=0.5;exitDx=0;exitDy=0;entryX=0;entryY=0.5;entryDx=0;entryDy=0;dashed=1;dashPattern=1 1;" parent="1" source="m28Sy5Jbz2A3yalMhefJ-114" target="m28Sy5Jbz2A3yalMhefJ-153" edge="1">
          <mxGeometry relative="1" as="geometry" />
        </mxCell>
        <mxCell id="m28Sy5Jbz2A3yalMhefJ-114" value="&lt;font&gt;&lt;b style=&quot;font-size: 17px&quot;&gt;&lt;u&gt;main.c&lt;br&gt;&lt;/u&gt;&lt;/b&gt;&lt;br&gt;&lt;font style=&quot;font-size: 12px&quot;&gt;подключение словарей&lt;/font&gt;&lt;br&gt;&lt;/font&gt;" style="rounded=0;whiteSpace=wrap;html=1;" parent="1" vertex="1">
          <mxGeometry x="360" y="180" width="120" height="80" as="geometry" />
        </mxCell>
        <mxCell id="m28Sy5Jbz2A3yalMhefJ-156" style="edgeStyle=orthogonalEdgeStyle;rounded=0;orthogonalLoop=1;jettySize=auto;html=1;exitX=0.5;exitY=1;exitDx=0;exitDy=0;dashed=1;dashPattern=1 1;" parent="1" source="m28Sy5Jbz2A3yalMhefJ-121" edge="1">
          <mxGeometry relative="1" as="geometry">
            <mxPoint x="430" y="180" as="targetPoint" />
          </mxGeometry>
        </mxCell>
        <mxCell id="m28Sy5Jbz2A3yalMhefJ-121" value="&lt;u&gt;numbers.dict&lt;/u&gt;" style="rounded=1;whiteSpace=wrap;html=1;" parent="1" vertex="1">
          <mxGeometry x="480" y="30" width="120" height="60" as="geometry" />
        </mxCell>
        <mxCell id="m28Sy5Jbz2A3yalMhefJ-138" value="Служебные модули" style="shape=table;html=1;whiteSpace=wrap;startSize=30;container=1;collapsible=0;childLayout=tableLayout;fontStyle=1;align=center;" parent="1" vertex="1">
          <mxGeometry x="880" y="180" width="260" height="190" as="geometry" />
        </mxCell>
        <mxCell id="m28Sy5Jbz2A3yalMhefJ-139" value="" style="shape=partialRectangle;html=1;whiteSpace=wrap;collapsible=0;dropTarget=0;pointerEvents=0;fillColor=none;top=0;left=0;bottom=0;right=0;points=[[0,0.5],[1,0.5]];portConstraint=eastwest;" parent="m28Sy5Jbz2A3yalMhefJ-138" vertex="1">
          <mxGeometry y="30" width="260" height="53" as="geometry" />
        </mxCell>
        <mxCell id="m28Sy5Jbz2A3yalMhefJ-140" value="&lt;b&gt;ft_putchar&lt;/b&gt;" style="shape=partialRectangle;html=1;whiteSpace=wrap;connectable=0;fillColor=none;top=0;left=0;bottom=0;right=0;overflow=hidden;" parent="m28Sy5Jbz2A3yalMhefJ-139" vertex="1">
          <mxGeometry width="100" height="53" as="geometry" />
        </mxCell>
        <mxCell id="m28Sy5Jbz2A3yalMhefJ-141" value="" style="shape=partialRectangle;html=1;whiteSpace=wrap;connectable=0;fillColor=none;top=0;left=0;bottom=0;right=0;overflow=hidden;" parent="m28Sy5Jbz2A3yalMhefJ-139" vertex="1">
          <mxGeometry x="100" width="80" height="53" as="geometry" />
        </mxCell>
        <mxCell id="m28Sy5Jbz2A3yalMhefJ-142" value="" style="shape=partialRectangle;html=1;whiteSpace=wrap;connectable=0;fillColor=none;top=0;left=0;bottom=0;right=0;overflow=hidden;" parent="m28Sy5Jbz2A3yalMhefJ-139" vertex="1">
          <mxGeometry x="180" width="80" height="53" as="geometry" />
        </mxCell>
        <mxCell id="m28Sy5Jbz2A3yalMhefJ-143" value="" style="shape=partialRectangle;html=1;whiteSpace=wrap;collapsible=0;dropTarget=0;pointerEvents=0;fillColor=none;top=0;left=0;bottom=0;right=0;points=[[0,0.5],[1,0.5]];portConstraint=eastwest;" parent="m28Sy5Jbz2A3yalMhefJ-138" vertex="1">
          <mxGeometry y="83" width="260" height="54" as="geometry" />
        </mxCell>
        <mxCell id="m28Sy5Jbz2A3yalMhefJ-144" value="&lt;b&gt;ft_putstr&lt;/b&gt;" style="shape=partialRectangle;html=1;whiteSpace=wrap;connectable=0;fillColor=none;top=0;left=0;bottom=0;right=0;overflow=hidden;" parent="m28Sy5Jbz2A3yalMhefJ-143" vertex="1">
          <mxGeometry width="100" height="54" as="geometry" />
        </mxCell>
        <mxCell id="m28Sy5Jbz2A3yalMhefJ-145" value="" style="shape=partialRectangle;html=1;whiteSpace=wrap;connectable=0;fillColor=none;top=0;left=0;bottom=0;right=0;overflow=hidden;" parent="m28Sy5Jbz2A3yalMhefJ-143" vertex="1">
          <mxGeometry x="100" width="80" height="54" as="geometry" />
        </mxCell>
        <mxCell id="m28Sy5Jbz2A3yalMhefJ-146" value="" style="shape=partialRectangle;html=1;whiteSpace=wrap;connectable=0;fillColor=none;top=0;left=0;bottom=0;right=0;overflow=hidden;" parent="m28Sy5Jbz2A3yalMhefJ-143" vertex="1">
          <mxGeometry x="180" width="80" height="54" as="geometry" />
        </mxCell>
        <mxCell id="m28Sy5Jbz2A3yalMhefJ-147" value="" style="shape=partialRectangle;html=1;whiteSpace=wrap;collapsible=0;dropTarget=0;pointerEvents=0;fillColor=none;top=0;left=0;bottom=0;right=0;points=[[0,0.5],[1,0.5]];portConstraint=eastwest;" parent="m28Sy5Jbz2A3yalMhefJ-138" vertex="1">
          <mxGeometry y="137" width="260" height="53" as="geometry" />
        </mxCell>
        <mxCell id="m28Sy5Jbz2A3yalMhefJ-148" value="&lt;b&gt;ft_putlen.c&lt;/b&gt;" style="shape=partialRectangle;html=1;whiteSpace=wrap;connectable=0;fillColor=none;top=0;left=0;bottom=0;right=0;overflow=hidden;" parent="m28Sy5Jbz2A3yalMhefJ-147" vertex="1">
          <mxGeometry width="100" height="53" as="geometry" />
        </mxCell>
        <mxCell id="m28Sy5Jbz2A3yalMhefJ-149" value="" style="shape=partialRectangle;html=1;whiteSpace=wrap;connectable=0;fillColor=none;top=0;left=0;bottom=0;right=0;overflow=hidden;" parent="m28Sy5Jbz2A3yalMhefJ-147" vertex="1">
          <mxGeometry x="100" width="80" height="53" as="geometry" />
        </mxCell>
        <mxCell id="m28Sy5Jbz2A3yalMhefJ-150" value="" style="shape=partialRectangle;html=1;whiteSpace=wrap;connectable=0;fillColor=none;top=0;left=0;bottom=0;right=0;overflow=hidden;" parent="m28Sy5Jbz2A3yalMhefJ-147" vertex="1">
          <mxGeometry x="180" width="80" height="53" as="geometry" />
        </mxCell>
        <mxCell id="m28Sy5Jbz2A3yalMhefJ-151" value="" style="endArrow=classic;html=1;exitX=0.5;exitY=1;exitDx=0;exitDy=0;entryX=0.5;entryY=0;entryDx=0;entryDy=0;" parent="1" source="m28Sy5Jbz2A3yalMhefJ-114" target="m28Sy5Jbz2A3yalMhefJ-152" edge="1">
          <mxGeometry width="50" height="50" relative="1" as="geometry">
            <mxPoint x="930" y="520" as="sourcePoint" />
            <mxPoint x="320" y="320" as="targetPoint" />
          </mxGeometry>
        </mxCell>
        <mxCell id="xVQLuETOOPHaf0KC1oCQ-1" style="edgeStyle=orthogonalEdgeStyle;rounded=0;orthogonalLoop=1;jettySize=auto;html=1;entryX=0.408;entryY=-0.033;entryDx=0;entryDy=0;entryPerimeter=0;exitX=0;exitY=0.5;exitDx=0;exitDy=0;" parent="1" source="m28Sy5Jbz2A3yalMhefJ-152" target="xVQLuETOOPHaf0KC1oCQ-10" edge="1">
          <mxGeometry relative="1" as="geometry">
            <mxPoint x="240" y="560" as="targetPoint" />
            <mxPoint x="350" y="350" as="sourcePoint" />
            <Array as="points">
              <mxPoint x="275" y="360" />
              <mxPoint x="275" y="280" />
              <mxPoint x="119" y="280" />
            </Array>
          </mxGeometry>
        </mxCell>
        <mxCell id="xVQLuETOOPHaf0KC1oCQ-12" style="edgeStyle=orthogonalEdgeStyle;rounded=0;orthogonalLoop=1;jettySize=auto;html=1;exitX=0.5;exitY=1;exitDx=0;exitDy=0;entryX=0.5;entryY=0;entryDx=0;entryDy=0;" parent="1" source="m28Sy5Jbz2A3yalMhefJ-152" target="xVQLuETOOPHaf0KC1oCQ-2" edge="1">
          <mxGeometry relative="1" as="geometry" />
        </mxCell>
        <mxCell id="m28Sy5Jbz2A3yalMhefJ-152" value="&lt;u&gt;&lt;b&gt;&lt;font style=&quot;font-size: 15px&quot;&gt;check_dict.c&lt;/font&gt;&lt;/b&gt;&lt;/u&gt;" style="rounded=0;whiteSpace=wrap;html=1;" parent="1" vertex="1">
          <mxGeometry x="360" y="320" width="120" height="80" as="geometry" />
        </mxCell>
        <mxCell id="m28Sy5Jbz2A3yalMhefJ-158" style="edgeStyle=orthogonalEdgeStyle;rounded=0;orthogonalLoop=1;jettySize=auto;html=1;exitX=1;exitY=0.5;exitDx=0;exitDy=0;entryX=1;entryY=0.5;entryDx=0;entryDy=0;dashed=1;dashPattern=1 1;" parent="1" source="m28Sy5Jbz2A3yalMhefJ-153" target="m28Sy5Jbz2A3yalMhefJ-121" edge="1">
          <mxGeometry relative="1" as="geometry" />
        </mxCell>
        <mxCell id="m28Sy5Jbz2A3yalMhefJ-153" value="&lt;u style=&quot;font-weight: bold&quot;&gt;search_dict.c&lt;/u&gt;&lt;br&gt;&lt;br&gt;поиск словаря" style="rounded=0;whiteSpace=wrap;html=1;" parent="1" vertex="1">
          <mxGeometry x="530" y="210" width="100" height="60" as="geometry" />
        </mxCell>
        <mxCell id="m28Sy5Jbz2A3yalMhefJ-159" value="" style="rounded=1;whiteSpace=wrap;html=1;" parent="1" vertex="1">
          <mxGeometry x="1470" y="380" width="120" height="60" as="geometry" />
        </mxCell>
        <mxCell id="m28Sy5Jbz2A3yalMhefJ-160" value="&lt;u&gt;numbers_ru.dict&lt;/u&gt;" style="rounded=1;whiteSpace=wrap;html=1;" parent="1" vertex="1">
          <mxGeometry x="240" y="30" width="120" height="60" as="geometry" />
        </mxCell>
        <mxCell id="xVQLuETOOPHaf0KC1oCQ-24" style="edgeStyle=orthogonalEdgeStyle;rounded=0;orthogonalLoop=1;jettySize=auto;html=1;exitX=1;exitY=0.5;exitDx=0;exitDy=0;entryX=0;entryY=0.5;entryDx=0;entryDy=0;" parent="1" source="xVQLuETOOPHaf0KC1oCQ-2" target="xVQLuETOOPHaf0KC1oCQ-4" edge="1">
          <mxGeometry relative="1" as="geometry" />
        </mxCell>
        <mxCell id="xVQLuETOOPHaf0KC1oCQ-2" value="&lt;b&gt;&lt;u&gt;&lt;font style=&quot;font-size: 14px&quot;&gt;digit_break.c&lt;/font&gt;&lt;/u&gt;&lt;/b&gt;" style="rounded=0;whiteSpace=wrap;html=1;" parent="1" vertex="1">
          <mxGeometry x="390" y="555" width="120" height="60" as="geometry" />
        </mxCell>
        <mxCell id="xVQLuETOOPHaf0KC1oCQ-4" value="&lt;b&gt;&lt;u&gt;&lt;font style=&quot;font-size: 14px&quot;&gt;check_digit.c&lt;/font&gt;&lt;/u&gt;&lt;/b&gt;" style="rounded=0;whiteSpace=wrap;html=1;" parent="1" vertex="1">
          <mxGeometry x="640" y="555" width="120" height="60" as="geometry" />
        </mxCell>
        <mxCell id="xVQLuETOOPHaf0KC1oCQ-8" value="output.c" style="rounded=0;whiteSpace=wrap;html=1;" parent="1" vertex="1">
          <mxGeometry x="560" y="910" width="120" height="60" as="geometry" />
        </mxCell>
        <mxCell id="xVQLuETOOPHaf0KC1oCQ-9" value="" style="rounded=0;whiteSpace=wrap;html=1;" parent="1" vertex="1">
          <mxGeometry x="1460" y="300" width="120" height="60" as="geometry" />
        </mxCell>
        <mxCell id="xVQLuETOOPHaf0KC1oCQ-10" value="&lt;b&gt;&lt;u&gt;&lt;font style=&quot;font-size: 14px&quot;&gt;gen_digit_struct.c&lt;/font&gt;&lt;/u&gt;&lt;/b&gt;" style="rounded=0;whiteSpace=wrap;html=1;" parent="1" vertex="1">
          <mxGeometry x="70" y="350" width="120" height="60" as="geometry" />
        </mxCell>
        <mxCell id="xVQLuETOOPHaf0KC1oCQ-14" value="" style="endArrow=none;dashed=1;html=1;dashPattern=1 3;strokeWidth=2;exitX=1;exitY=0.5;exitDx=0;exitDy=0;entryX=0;entryY=0.5;entryDx=0;entryDy=0;" parent="1" source="xVQLuETOOPHaf0KC1oCQ-8" target="m28Sy5Jbz2A3yalMhefJ-143" edge="1">
          <mxGeometry width="50" height="50" relative="1" as="geometry">
            <mxPoint x="800" y="490" as="sourcePoint" />
            <mxPoint x="850" y="440" as="targetPoint" />
          </mxGeometry>
        </mxCell>
        <mxCell id="xVQLuETOOPHaf0KC1oCQ-15" value="" style="endArrow=none;dashed=1;html=1;entryX=0;entryY=0.5;entryDx=0;entryDy=0;exitX=1;exitY=0.25;exitDx=0;exitDy=0;" parent="1" source="xVQLuETOOPHaf0KC1oCQ-2" target="m28Sy5Jbz2A3yalMhefJ-147" edge="1">
          <mxGeometry width="50" height="50" relative="1" as="geometry">
            <mxPoint x="800" y="490" as="sourcePoint" />
            <mxPoint x="850" y="440" as="targetPoint" />
            <Array as="points">
              <mxPoint x="690" y="460" />
            </Array>
          </mxGeometry>
        </mxCell>
        <mxCell id="xVQLuETOOPHaf0KC1oCQ-17" value="" style="endArrow=classic;html=1;exitX=0.5;exitY=1;exitDx=0;exitDy=0;" parent="1" source="xVQLuETOOPHaf0KC1oCQ-10" target="xVQLuETOOPHaf0KC1oCQ-18" edge="1">
          <mxGeometry width="50" height="50" relative="1" as="geometry">
            <mxPoint x="800" y="490" as="sourcePoint" />
            <mxPoint x="130" y="520" as="targetPoint" />
          </mxGeometry>
        </mxCell>
        <mxCell id="xVQLuETOOPHaf0KC1oCQ-18" value="&lt;b&gt;&lt;font style=&quot;font-size: 16px&quot;&gt;g_dict_struct.c&lt;/font&gt;&lt;/b&gt;" style="ellipse;whiteSpace=wrap;html=1;" parent="1" vertex="1">
          <mxGeometry x="-200" y="520" width="120" height="80" as="geometry" />
        </mxCell>
        <mxCell id="xVQLuETOOPHaf0KC1oCQ-20" value="" style="endArrow=classic;startArrow=classic;html=1;exitX=1;exitY=0.5;exitDx=0;exitDy=0;entryX=0;entryY=0.5;entryDx=0;entryDy=0;" parent="1" source="xVQLuETOOPHaf0KC1oCQ-18" target="xVQLuETOOPHaf0KC1oCQ-8" edge="1">
          <mxGeometry width="50" height="50" relative="1" as="geometry">
            <mxPoint x="-140" y="610" as="sourcePoint" />
            <mxPoint x="380" y="690" as="targetPoint" />
          </mxGeometry>
        </mxCell>
        <mxCell id="xVQLuETOOPHaf0KC1oCQ-22" value="" style="endArrow=classic;html=1;exitX=0;exitY=1;exitDx=0;exitDy=0;" parent="1" source="xVQLuETOOPHaf0KC1oCQ-2" edge="1">
          <mxGeometry width="50" height="50" relative="1" as="geometry">
            <mxPoint x="-130" y="610" as="sourcePoint" />
            <mxPoint x="-80" y="560" as="targetPoint" />
          </mxGeometry>
        </mxCell>
        <mxCell id="xVQLuETOOPHaf0KC1oCQ-23" style="edgeStyle=orthogonalEdgeStyle;rounded=0;orthogonalLoop=1;jettySize=auto;html=1;exitX=0.5;exitY=1;exitDx=0;exitDy=0;" parent="1" source="xVQLuETOOPHaf0KC1oCQ-4" target="xVQLuETOOPHaf0KC1oCQ-4" edge="1">
          <mxGeometry relative="1" as="geometry" />
        </mxCell>
        <mxCell id="xVQLuETOOPHaf0KC1oCQ-28" value="" style="endArrow=classic;startArrow=classic;html=1;exitX=0.5;exitY=1;exitDx=0;exitDy=0;entryX=0.575;entryY=1.013;entryDx=0;entryDy=0;entryPerimeter=0;" parent="1" source="xVQLuETOOPHaf0KC1oCQ-4" target="xVQLuETOOPHaf0KC1oCQ-18" edge="1">
          <mxGeometry width="50" height="50" relative="1" as="geometry">
            <mxPoint x="710" y="490" as="sourcePoint" />
            <mxPoint x="760" y="440" as="targetPoint" />
            <Array as="points">
              <mxPoint x="310" y="700" />
            </Array>
          </mxGeometry>
        </mxCell>
      </root>
    </mxGraphModel>
  </diagram>
</mxfile>
